<svg width="383px" height="41px" viewBox="0 0 383 41" version="1.1" xmlns="http://www.w3.org/2000/svg" xmlns:xlink="http://www.w3.org/1999/xlink">
    <g id="Page-1" stroke="none" stroke-width="1" fill="none" fill-rule="evenodd">
        <g id="mtc_01_fix" transform="translate(-251.000000, -79.000000)" fill="#121C3B">
            <g id="hero" transform="translate(246.000000, 79.000000)">
                <path d="M25.527832,25.7197266 C26.9975659,23.8740142 27.7324219,21.2490405 27.7324219,17.8447266 C27.7324219,14.4540846 26.9975659,11.8325288 25.527832,9.97998047 C24.0580981,8.12743214 22.0722781,7.20117188 19.5703125,7.20117188 C17.0683469,7.20117188 15.0722731,8.12401421 13.5820312,9.96972656 C12.0917894,11.8154389 11.3466797,14.4404127 11.3466797,17.8447266 C11.3466797,21.2490405 12.0917894,23.8740142 13.5820312,25.7197266 C15.0722731,27.5654389 17.0683469,28.4882812 19.5703125,28.4882812 C22.0722781,28.4882812 24.0580981,27.5654389 25.527832,25.7197266 Z M29.4755859,30.3134766 C27.1923714,32.6650508 23.8906466,33.8408203 19.5703125,33.8408203 C15.2499784,33.8408203 11.9482536,32.6650508 9.66503906,30.3134766 C6.60252375,27.4286965 5.07128906,23.2724881 5.07128906,17.8447266 C5.07128906,12.3075895 6.60252375,8.15138106 9.66503906,5.37597656 C11.9482536,3.0244023 15.2499784,1.84863281 19.5703125,1.84863281 C23.8906466,1.84863281 27.1923714,3.0244023 29.4755859,5.37597656 C32.5244293,8.15138106 34.0488281,12.3075895 34.0488281,17.8447266 C34.0488281,23.2724881 32.5244293,27.4286965 29.4755859,30.3134766 Z M51.7470703,18.6650391 C51.6376948,17.8310505 51.3574241,17.0791049 50.90625,16.4091797 C50.2499967,15.5068314 49.2314522,15.0556641 47.8505859,15.0556641 C45.8818261,15.0556641 44.5351599,16.0331933 43.8105469,17.9882812 C43.4277325,19.0273489 43.2363281,20.4081945 43.2363281,22.1308594 C43.2363281,23.7714926 43.4277325,25.0908153 43.8105469,26.0888672 C44.507816,27.9482515 45.8203029,28.8779297 47.7480469,28.8779297 C49.1152412,28.8779297 50.0859346,28.5087928 50.6601562,27.7705078 C51.2343779,27.0322229 51.5830072,26.0752012 51.7060547,24.8994141 L57.6738281,24.8994141 C57.5371087,26.6767667 56.894537,28.3583905 55.7460938,29.9443359 C53.9140533,32.5009893 51.2002133,33.7792969 47.6044922,33.7792969 C44.0087711,33.7792969 41.3632897,32.7129013 39.6679688,30.5800781 C37.9726478,28.447255 37.125,25.678728 37.125,22.2744141 C37.125,18.432598 38.0615141,15.4453232 39.9345703,13.3125 C41.8076266,11.1796768 44.3915851,10.1132812 47.6865234,10.1132812 C50.4892718,10.1132812 52.7827059,10.7421812 54.5668945,12 C56.3510831,13.2578188 57.4072249,15.4794763 57.7353516,18.6650391 L51.7470703,18.6650391 Z M60.4580078,15.0146484 L60.4580078,10.8515625 L63.5751953,10.8515625 L63.5751953,4.6171875 L69.3583984,4.6171875 L69.3583984,10.8515625 L72.9882812,10.8515625 L72.9882812,15.0146484 L69.3583984,15.0146484 L69.3583984,26.8271484 C69.3583984,27.7431686 69.4746082,28.3139637 69.7070312,28.5395508 C69.9394543,28.7651378 70.6503847,28.8779297 71.8398438,28.8779297 C72.017579,28.8779297 72.2055654,28.8745118 72.4038086,28.8676758 C72.6020518,28.8608398 72.796874,28.850586 72.9882812,28.8369141 L72.9882812,33.2050781 L70.2197266,33.3076172 C67.457994,33.4033208 65.5712941,32.92481 64.5595703,31.8720703 C63.903317,31.2021451 63.5751953,30.1699288 63.5751953,28.7753906 L63.5751953,15.0146484 L60.4580078,15.0146484 Z M77.6386719,26.8886719 L83.8525391,26.8886719 L83.8525391,33 L77.6386719,33 L77.6386719,26.8886719 Z M114.31543,26.6015625 L110.952148,26.6015625 L110.952148,33 L105.230469,33 L105.230469,26.6015625 L93.4589844,26.6015625 L93.4589844,21.4951172 L104.389648,3.44824219 L110.952148,3.44824219 L110.952148,22.0283203 L114.31543,22.0283203 L114.31543,26.6015625 Z M105.230469,22.0283203 L105.230469,9.19042969 L97.7861328,22.0283203 L105.230469,22.0283203 Z M118.140625,15.0146484 L118.140625,10.8515625 L121.257812,10.8515625 L121.257812,4.6171875 L127.041016,4.6171875 L127.041016,10.8515625 L130.670898,10.8515625 L130.670898,15.0146484 L127.041016,15.0146484 L127.041016,26.8271484 C127.041016,27.7431686 127.157225,28.3139637 127.389648,28.5395508 C127.622071,28.7651378 128.333002,28.8779297 129.522461,28.8779297 C129.700196,28.8779297 129.888183,28.8745118 130.086426,28.8676758 C130.284669,28.8608398 130.479491,28.850586 130.670898,28.8369141 L130.670898,33.2050781 L127.902344,33.3076172 C125.140611,33.4033208 123.253911,32.92481 122.242188,31.8720703 C121.585934,31.2021451 121.257812,30.1699288 121.257812,28.7753906 L121.257812,15.0146484 L118.140625,15.0146484 Z M150.512207,10.7900391 C151.640142,11.2685571 152.566403,11.9999951 153.291016,12.984375 C153.906253,13.8183635 154.282226,14.6762651 154.418945,15.5581055 C154.555665,16.4399458 154.624023,17.8788963 154.624023,19.875 L154.624023,33 L148.65625,33 L148.65625,19.4033203 C148.65625,18.2001893 148.451174,17.2294959 148.041016,16.4912109 C147.50781,15.4521432 146.496101,14.9326172 145.005859,14.9326172 C143.46093,14.9326172 142.288578,15.4487253 141.48877,16.480957 C140.688961,17.5131888 140.289062,18.9863186 140.289062,20.9003906 L140.289062,33 L134.464844,33 L134.464844,2.87402344 L140.289062,2.87402344 L140.289062,13.5585938 C141.136723,12.2597591 142.11767,11.3540065 143.231934,10.8413086 C144.346197,10.3286107 145.518549,10.0722656 146.749023,10.0722656 C148.12989,10.0722656 149.384272,10.311521 150.512207,10.7900391 Z M159.771484,37.8603516 C160.947272,37.5322249 161.812009,36.9853554 162.365723,36.2197266 C162.919436,35.4540977 163.237304,34.3808663 163.319336,33 L159.771484,33 L159.771484,26.8886719 L166.087891,26.8886719 L166.087891,32.1796875 C166.087891,33.1093796 165.964845,34.0800731 165.71875,35.0917969 C165.472655,36.1035207 165.014652,36.9785119 164.344727,37.7167969 C163.620114,38.5097696 162.769048,39.1079081 161.791504,39.5112305 C160.81396,39.9145528 160.140627,40.1162109 159.771484,40.1162109 L159.771484,37.8603516 Z M178.375977,27.1552734 C179.209965,25.1728417 181.178695,23.0742298 184.282227,20.859375 C186.975599,18.931631 188.718746,17.5507854 189.511719,16.7167969 C190.728522,15.4179623 191.336914,13.9961015 191.336914,12.4511719 C191.336914,11.1933531 190.988285,10.1474651 190.291016,9.31347656 C189.593747,8.47948802 188.59571,8.0625 187.296875,8.0625 C185.519522,8.0625 184.309574,8.72557931 183.666992,10.0517578 C183.29785,10.8173866 183.079102,12.0341713 183.010742,13.7021484 L177.330078,13.7021484 C177.425782,11.1728389 177.883785,9.12891404 178.704102,7.5703125 C180.262703,4.60350079 183.03123,3.12011719 187.009766,3.12011719 C190.154313,3.12011719 192.656241,3.9916905 194.515625,5.73486328 C196.375009,7.47803606 197.304688,9.78514189 197.304688,12.65625 C197.304688,14.8574329 196.648444,16.8124915 195.335938,18.5214844 C194.474605,19.6562557 193.05958,20.9208915 191.09082,22.3154297 L188.75293,23.9765625 C187.290032,25.0156302 186.288577,25.7675758 185.748535,26.2324219 C185.208493,26.6972679 184.753908,27.2373016 184.384766,27.8525391 L197.366211,27.8525391 L197.366211,33 L177.001953,33 C177.056641,30.8671768 177.514644,28.9189541 178.375977,27.1552734 Z M209.168945,26.2631836 C209.729495,28.0747161 210.877921,28.9804688 212.614258,28.9804688 C214.350595,28.9804688 215.488767,28.0747161 216.028809,26.2631836 C216.56885,24.4516511 216.838867,21.8369312 216.838867,18.4189453 C216.838867,14.8368962 216.56885,12.1845789 216.028809,10.4619141 C215.488767,8.7392492 214.350595,7.87792969 212.614258,7.87792969 C210.877921,7.87792969 209.729495,8.7392492 209.168945,10.4619141 C208.608396,12.1845789 208.328125,14.8368962 208.328125,18.4189453 C208.328125,21.8369312 208.608396,24.4516511 209.168945,26.2631836 Z M220.581543,7.05761719 C222.105965,9.72364614 222.868164,13.5107176 222.868164,18.4189453 C222.868164,23.327173 222.105965,27.1074086 220.581543,29.7597656 C219.057121,32.4121226 216.401386,33.7382812 212.614258,33.7382812 C208.82713,33.7382812 206.171394,32.4121226 204.646973,29.7597656 C203.122551,27.1074086 202.360352,23.327173 202.360352,18.4189453 C202.360352,13.5107176 203.122551,9.72364614 204.646973,7.05761719 C206.171394,4.39158823 208.82713,3.05859375 212.614258,3.05859375 C216.401386,3.05859375 219.057121,4.39158823 220.581543,7.05761719 Z M226.318359,12.4921875 L226.318359,8.51367188 C228.164072,8.43164021 229.456051,8.30859457 230.194336,8.14453125 C231.370123,7.88476433 232.327145,7.36523827 233.06543,6.5859375 C233.571292,6.05273171 233.9541,5.34180132 234.213867,4.453125 C234.364259,3.91991921 234.439453,3.5234388 234.439453,3.26367188 L239.299805,3.26367188 L239.299805,33 L233.311523,33 L233.311523,12.4921875 L226.318359,12.4921875 Z M252.080566,27.7705078 C252.839359,28.5771525 253.888665,28.9804688 255.228516,28.9804688 C256.568366,28.9804688 257.617672,28.5771525 258.376465,27.7705078 C259.135258,26.9638632 259.514648,25.8291089 259.514648,24.3662109 C259.514648,22.8486252 259.128422,21.6967813 258.355957,20.9106445 C257.583492,20.1245078 256.541022,19.7314453 255.228516,19.7314453 C253.916009,19.7314453 252.873539,20.1245078 252.101074,20.9106445 C251.328609,21.6967813 250.942383,22.8486252 250.942383,24.3662109 C250.942383,25.8291089 251.321774,26.9638632 252.080566,27.7705078 Z M246.010254,20.2236328 C246.769047,18.8701104 247.879875,17.8515659 249.342773,17.1679688 C247.907219,16.2109327 246.974123,15.1752985 246.543457,14.0610352 C246.112791,12.9467718 245.897461,11.9043017 245.897461,10.9335938 C245.897461,8.7734267 246.710929,6.93115997 248.337891,5.40673828 C249.964852,3.8823166 252.261704,3.12011719 255.228516,3.12011719 C258.195327,3.12011719 260.492179,3.8823166 262.119141,5.40673828 C263.746102,6.93115997 264.55957,8.7734267 264.55957,10.9335938 C264.55957,11.9043017 264.34424,12.9467718 263.913574,14.0610352 C263.482908,15.1752985 262.549812,16.142574 261.114258,16.9628906 C262.577156,17.7832072 263.677731,18.8701104 264.416016,20.2236328 C265.154301,21.5771552 265.523438,23.0878823 265.523438,24.7558594 C265.523438,27.257825 264.597177,29.3871982 262.744629,31.144043 C260.892081,32.9008877 258.304704,33.7792969 254.982422,33.7792969 C251.66014,33.7792969 249.14454,32.9008877 247.435547,31.144043 C245.726554,29.3871982 244.87207,27.257825 244.87207,24.7558594 C244.87207,23.0878823 245.251461,21.5771552 246.010254,20.2236328 Z M252.470215,14.2353516 C253.133304,14.9189487 254.052728,15.2607422 255.228516,15.2607422 C256.417975,15.2607422 257.337399,14.9189487 257.986816,14.2353516 C258.636234,13.5517544 258.960938,12.6699273 258.960938,11.5898438 C258.960938,10.4140566 258.636234,9.49463222 257.986816,8.83154297 C257.337399,8.16845372 256.417975,7.83691406 255.228516,7.83691406 C254.052728,7.83691406 253.133304,8.16845372 252.470215,8.83154297 C251.807126,9.49463222 251.475586,10.4140566 251.475586,11.5898438 C251.475586,12.6699273 251.807126,13.5517544 252.470215,14.2353516 Z M282.69882,7.32482278 C283.635856,5.1423594 285.005806,2.79387425 286.80871,0.279296875 L290.633933,0.279296875 L289.548637,2.27197087 C288.054124,5.01191131 287.016283,7.88228205 286.435084,10.8831692 C286.055525,12.8521307 285.865748,14.9989783 285.865748,17.3237762 C285.865748,20.9533077 286.393565,24.2921894 287.449213,27.3405214 C288.065996,29.1434259 289.157211,31.4563279 290.722891,34.2792969 L286.968836,34.2792969 L285.705623,32.5534989 C284.887199,31.509712 284.015413,29.9559163 283.090238,27.8920651 C281.44153,24.2032275 280.617188,20.5737504 280.617188,17.003525 C280.617188,13.7535524 281.311058,10.5273506 282.69882,7.32482278 Z M320.941406,2.77148438 L320.941406,8.12402344 L311.897461,8.12402344 L311.897461,33 L305.540039,33 L305.540039,8.12402344 L296.455078,8.12402344 L296.455078,2.77148438 L320.941406,2.77148438 Z M341.249512,10.7900391 C342.377447,11.2685571 343.303707,11.9999951 344.02832,12.984375 C344.643558,13.8183635 345.019531,14.6762651 345.15625,15.5581055 C345.292969,16.4399458 345.361328,17.8788963 345.361328,19.875 L345.361328,33 L339.393555,33 L339.393555,19.4033203 C339.393555,18.2001893 339.188479,17.2294959 338.77832,16.4912109 C338.245115,15.4521432 337.233406,14.9326172 335.743164,14.9326172 C334.198234,14.9326172 333.025883,15.4487253 332.226074,16.480957 C331.426266,17.5131888 331.026367,18.9863186 331.026367,20.9003906 L331.026367,33 L325.202148,33 L325.202148,2.87402344 L331.026367,2.87402344 L331.026367,13.5585938 C331.874028,12.2597591 332.854975,11.3540065 333.969238,10.8413086 C335.083502,10.3286107 336.255853,10.0722656 337.486328,10.0722656 C338.867194,10.0722656 340.121576,10.311521 341.249512,10.7900391 Z M355.640625,10.6464844 L355.640625,24.1201172 C355.640625,25.3916079 355.791014,26.3486296 356.091797,26.9912109 C356.625003,28.1259822 357.670891,28.6933594 359.229492,28.6933594 C361.225596,28.6933594 362.59277,27.8867268 363.331055,26.2734375 C363.713869,25.3984331 363.905273,24.2431712 363.905273,22.8076172 L363.905273,10.6464844 L369.832031,10.6464844 L369.832031,33 L364.151367,33 L364.151367,29.8417969 C364.096679,29.9101566 363.959962,30.1152327 363.741211,30.4570312 C363.52246,30.7988298 363.262697,31.0996081 362.961914,31.359375 C362.045894,32.1796916 361.160649,32.7402329 360.306152,33.0410156 C359.451656,33.3417984 358.450201,33.4921875 357.301758,33.4921875 C353.993148,33.4921875 351.764654,32.3027463 350.616211,29.9238281 C349.97363,28.6113216 349.652344,26.6767706 349.652344,24.1201172 L349.652344,10.6464844 L355.640625,10.6464844 Z M385.198876,7.32482278 C386.586638,10.5273506 387.280509,13.7535524 387.280509,17.003525 C387.280509,20.5737504 386.456166,24.2032275 384.807458,27.8920651 C383.882283,29.9559163 383.010497,31.509712 382.192073,32.5534989 L380.92886,34.2792969 L377.174805,34.2792969 C378.740485,31.4563279 379.8317,29.1434259 380.448483,27.3405214 C381.504131,24.2921894 382.031948,20.9533077 382.031948,17.3237762 C382.031948,14.9989783 381.842171,12.8521307 381.462612,10.8831692 C380.881413,7.88228205 379.843572,5.01191131 378.349059,2.27197087 L377.263763,0.279296875 L381.088986,0.279296875 C382.89189,2.79387425 384.26184,5.1423594 385.198876,7.32482278 Z" id="Oct.-4th,-2018-(Thu)"></path>
            </g>
        </g>
    </g>
</svg>
